<svg width="50" height="50" viewBox="0 0 50 50" fill="none" xmlns="http://www.w3.org/2000/svg">
<path d="M10.6006 6.25H13H37H39.4006C42.7609 6.25 44.4387 6.25 45.7222 6.82222C46.8512 7.32555 47.7714 8.12812 48.3467 9.11597C49 10.2379 49 11.7074 49 14.6419V16.75V39.8594C49 42.7939 49 44.2613 48.3467 45.3832C47.7714 46.371 46.8512 47.175 45.7222 47.6783C44.44 48.25 42.763 48.25 39.4093 48.25H10.5907C7.23698 48.25 5.55761 48.25 4.27539 47.6783C3.14642 47.175 2.2292 46.371 1.65396 45.3832C1 44.2602 1 42.7908 1 39.8505V16.75V14.6505C1 11.7102 1 10.239 1.65396 9.11597C2.2292 8.12812 3.14642 7.32555 4.27539 6.82222C5.55886 6.25 7.24027 6.25 10.6006 6.25Z" fill="black" fill-opacity="0.8"/>
<path d="M1 16.75H49M1 16.75V39.8505C1 42.7908 1 44.2602 1.65396 45.3832C2.2292 46.371 3.14642 47.175 4.27539 47.6783C5.55761 48.25 7.23698 48.25 10.5907 48.25H39.4093C42.763 48.25 44.44 48.25 45.7222 47.6783C46.8512 47.175 47.7714 46.371 48.3467 45.3832C49 44.2613 49 42.7939 49 39.8594V16.75M1 16.75V14.6505C1 11.7102 1 10.239 1.65396 9.11597C2.2292 8.12812 3.14642 7.32555 4.27539 6.82222C5.55886 6.25 7.24027 6.25 10.6006 6.25H13M49 16.75V14.6419C49 11.7074 49 10.2379 48.3467 9.11597C47.7714 8.12812 46.8512 7.32555 45.7222 6.82222C44.4387 6.25 42.7609 6.25 39.4006 6.25H37M13 6.25H37M13 6.25V1M37 6.25V1M24.25 37.75C24.6642 37.75 25 37.4562 25 37.0938V27.9062C25 27.5438 24.6642 27.25 24.25 27.25H13.75C13.3358 27.25 13 27.5438 13 27.9062V32.5V37.0938C13 37.4562 13.3358 37.75 13.75 37.75H24.25Z" stroke="black" stroke-opacity="0.8" stroke-width="2" stroke-linecap="round" stroke-linejoin="round"/>
<rect x="12" y="26" width="14" height="13" rx="2" fill="#7D84C3"/>
<rect x="2" y="16" width="46" height="2" fill="#7D84C3"/>
</svg>
