<svg width="49" height="37" viewBox="0 0 49 37" fill="none" xmlns="http://www.w3.org/2000/svg">
<path d="M20 34.3229H7.25V17.9395C7.25 16.9153 7.25 16.403 7.38806 15.9264C7.51042 15.5041 7.71281 15.1044 7.98462 14.7433C8.29134 14.3357 8.71761 13.9978 9.57214 13.3234L19.7755 5.27072C21.3597 4.02048 22.1518 3.39532 23.0439 3.15737C23.8305 2.94754 24.669 2.94754 25.4557 3.15737C26.3485 3.3955 27.1417 4.02125 28.7283 5.27338L38.9283 13.3234C39.7828 13.9978 40.2092 14.3357 40.516 14.7433C40.7878 15.1044 40.9886 15.5041 41.111 15.9264C41.249 16.403 41.25 16.9153 41.25 17.9395V34.3229H28.5V26.6562L28.4145 25.8873L28.1333 25.0962L27.7644 24.5L27.3143 24L26.6627 23.5L25.8069 23.0882L25.0694 22.894L24.25 22.8229L23.4306 22.894L22.6931 23.0882L21.8641 23.4835L21.1857 24L20.7356 24.5L20.3667 25.0962L20 26V26.6562V30V34.3229Z" fill="black"/>
<path d="M3 34.3229H7.25M7.25 34.3229H20M7.25 34.3229V17.9395C7.25 16.9153 7.25 16.403 7.38806 15.9264C7.51042 15.5041 7.71281 15.1044 7.98462 14.7433C8.29134 14.3357 8.71761 13.9978 9.57214 13.3234L19.7755 5.27072C21.3597 4.02048 22.1518 3.39532 23.0439 3.15737C23.8305 2.94754 24.669 2.94754 25.4557 3.15737C26.3485 3.3955 27.1417 4.02125 28.7283 5.27338L38.9283 13.3234C39.7828 13.9978 40.2092 14.3357 40.516 14.7433C40.7878 15.1044 40.9886 15.5041 41.111 15.9264C41.249 16.403 41.25 16.9153 41.25 17.9395V34.3229M20 34.3229V26.6562M20 34.3229V30V26.6562M41.25 34.3229H28.5V26.6562M41.25 34.3229H45.5M28.5 26.6562C28.5 24.5391 26.5972 22.8229 24.25 22.8229M28.5 26.6562L28.4145 25.8873L28.1333 25.0962L27.7644 24.5L27.3143 24L26.6627 23.5L25.8069 23.0882L25.0694 22.894L24.25 22.8229M20 26.6562C20 24.5391 21.9028 22.8229 24.25 22.8229M20 26.6562V26L20.3667 25.0962L20.7356 24.5L21.1857 24L21.8641 23.4835L22.6931 23.0882L23.4306 22.894L24.25 22.8229" stroke="#171515" stroke-width="2" stroke-linecap="round" stroke-linejoin="round"/>
</svg>
