<svg width="56" height="56" viewBox="0 0 56 56" fill="none" xmlns="http://www.w3.org/2000/svg">
<g filter="url(#filter0_d_2_4612)">
<path fill-rule="evenodd" clip-rule="evenodd" d="M37.8458 20.4C37.0178 20.4 36.3458 19.728 36.3458 18.9V14.606C36.3458 10.414 32.9358 7.00402 28.7438 7.00402H28.7118C26.6858 7.00402 24.7878 7.78402 23.3538 9.20602C21.9098 10.634 21.1118 12.54 21.1038 14.572V18.9C21.1038 19.728 20.4318 20.4 19.6038 20.4C18.7758 20.4 18.1038 19.728 18.1038 18.9V14.606C18.1158 11.726 19.2298 9.06802 21.2398 7.07602C23.2518 5.08202 25.9078 3.92802 28.7498 4.00402C34.5898 4.00402 39.3458 8.76002 39.3458 14.606V18.9C39.3458 19.728 38.6738 20.4 37.8458 20.4" fill="black"/>
<path fill-rule="evenodd" clip-rule="evenodd" d="M21.084 20.2576C17.728 20.2576 15 22.9856 15 26.3416V34.9196C15 38.2756 17.728 41.0036 21.084 41.0036H36.366C39.72 41.0036 42.45 38.2756 42.45 34.9196V26.3416C42.45 22.9856 39.72 20.2576 36.366 20.2576H21.084ZM36.366 44.0036H21.084C16.074 44.0036 12 39.9296 12 34.9196V26.3416C12 21.3316 16.074 17.2576 21.084 17.2576H36.366C41.376 17.2576 45.45 21.3316 45.45 26.3416V34.9196C45.45 39.9296 41.376 44.0036 36.366 44.0036V44.0036Z" fill="black"/>
<path fill-rule="evenodd" clip-rule="evenodd" d="M28.7246 34.3512C27.8966 34.3512 27.2246 33.6792 27.2246 32.8512V28.4092C27.2246 27.5812 27.8966 26.9092 28.7246 26.9092C29.5526 26.9092 30.2246 27.5812 30.2246 28.4092V32.8512C30.2246 33.6792 29.5526 34.3512 28.7246 34.3512" fill="black"/>
</g>
<defs>
<filter id="filter0_d_2_4612" x="0" y="0" width="56" height="56" filterUnits="userSpaceOnUse" color-interpolation-filters="sRGB">
<feFlood flood-opacity="0" result="BackgroundImageFix"/>
<feColorMatrix in="SourceAlpha" type="matrix" values="0 0 0 0 0 0 0 0 0 0 0 0 0 0 0 0 0 0 127 0" result="hardAlpha"/>
<feOffset dy="4"/>
<feGaussianBlur stdDeviation="2"/>
<feComposite in2="hardAlpha" operator="out"/>
<feColorMatrix type="matrix" values="0 0 0 0 0 0 0 0 0 0 0 0 0 0 0 0 0 0 0.25 0"/>
<feBlend mode="normal" in2="BackgroundImageFix" result="effect1_dropShadow_2_4612"/>
<feBlend mode="normal" in="SourceGraphic" in2="effect1_dropShadow_2_4612" result="shape"/>
</filter>
</defs>
</svg>
