<svg width="48" height="48" viewBox="0 0 48 48" fill="none" xmlns="http://www.w3.org/2000/svg">
<g filter="url(#filter0_d_2_4612)">
<path fill-rule="evenodd" clip-rule="evenodd" d="M32.2048 17C31.5148 17 30.9548 16.44 30.9548 15.75V12.1717C30.9548 8.67835 28.1132 5.83668 24.6198 5.83668H24.5932C22.9048 5.83668 21.3232 6.48668 20.1282 7.67168C18.9248 8.86168 18.2598 10.45 18.2532 12.1434V15.75C18.2532 16.44 17.6932 17 17.0032 17C16.3132 17 15.7532 16.44 15.7532 15.75V12.1717C15.7632 9.77168 16.6915 7.55668 18.3665 5.89668C20.0432 4.23502 22.2565 3.27335 24.6248 3.33668C29.4915 3.33668 33.4548 7.30002 33.4548 12.1717V15.75C33.4548 16.44 32.8948 17 32.2048 17Z" fill="black"/>
<path fill-rule="evenodd" clip-rule="evenodd" d="M18.2367 16.8813C15.44 16.8813 13.1667 19.1547 13.1667 21.9513V29.0997C13.1667 31.8963 15.44 34.1697 18.2367 34.1697H30.9717C33.7667 34.1697 36.0417 31.8963 36.0417 29.0997V21.9513C36.0417 19.1547 33.7667 16.8813 30.9717 16.8813H18.2367ZM30.9717 36.6697H18.2367C14.0617 36.6697 10.6667 33.2747 10.6667 29.0997V21.9513C10.6667 17.7763 14.0617 14.3813 18.2367 14.3813H30.9717C35.1467 14.3813 38.5417 17.7763 38.5417 21.9513V29.0997C38.5417 33.2747 35.1467 36.6697 30.9717 36.6697Z" fill="black"/>
<path fill-rule="evenodd" clip-rule="evenodd" d="M24.6038 28.626C23.9138 28.626 23.3538 28.066 23.3538 27.376V23.6743C23.3538 22.9843 23.9138 22.4243 24.6038 22.4243C25.2938 22.4243 25.8538 22.9843 25.8538 23.6743V27.376C25.8538 28.066 25.2938 28.626 24.6038 28.626Z" fill="black"/>
</g>
<defs>
<filter id="filter0_d_2_4612" x="0" y="0" width="48" height="48" filterUnits="userSpaceOnUse" color-interpolation-filters="sRGB">
<feFlood flood-opacity="0" result="BackgroundImageFix"/>
<feColorMatrix in="SourceAlpha" type="matrix" values="0 0 0 0 0 0 0 0 0 0 0 0 0 0 0 0 0 0 127 0" result="hardAlpha"/>
<feOffset dy="4"/>
<feGaussianBlur stdDeviation="2"/>
<feComposite in2="hardAlpha" operator="out"/>
<feColorMatrix type="matrix" values="0 0 0 0 0 0 0 0 0 0 0 0 0 0 0 0 0 0 0.25 0"/>
<feBlend mode="normal" in2="BackgroundImageFix" result="effect1_dropShadow_2_4612"/>
<feBlend mode="normal" in="SourceGraphic" in2="effect1_dropShadow_2_4612" result="shape"/>
</filter>
</defs>
</svg>
