<svg width="27" height="34" viewBox="0 0 27 34" fill="none" xmlns="http://www.w3.org/2000/svg">
<mask id="mask0_51_2409" style="mask-type:luminance" maskUnits="userSpaceOnUse" x="0" y="20" width="27" height="14">
<path fill-rule="evenodd" clip-rule="evenodd" d="M0 20.8267H26.3998V33.1167H0V20.8267Z" fill="white"/>
</mask>
<g mask="url(#mask0_51_2409)">
<path fill-rule="evenodd" clip-rule="evenodd" d="M13.2015 23.3267C6.09985 23.3267 2.49985 24.5467 2.49985 26.955C2.49985 29.385 6.09985 30.6167 13.2015 30.6167C20.3015 30.6167 23.8998 29.3967 23.8998 26.9883C23.8998 24.5583 20.3015 23.3267 13.2015 23.3267ZM13.2015 33.1167C9.93651 33.1167 -0.000152588 33.1167 -0.000152588 26.955C-0.000152588 21.4617 7.53485 20.8267 13.2015 20.8267C16.4665 20.8267 26.3998 20.8267 26.3998 26.9883C26.3998 32.4817 18.8665 33.1167 13.2015 33.1167Z" fill="white"/>
</g>
<mask id="mask1_51_2409" style="mask-type:luminance" maskUnits="userSpaceOnUse" x="4" y="0" width="19" height="18">
<path fill-rule="evenodd" clip-rule="evenodd" d="M4.34979 0H22.0498V17.6977H4.34979V0Z" fill="white"/>
</mask>
<g mask="url(#mask1_51_2409)">
<path fill-rule="evenodd" clip-rule="evenodd" d="M13.2015 2.37939C9.63318 2.37939 6.72985 5.28106 6.72985 8.84939C6.71818 12.4061 9.59984 15.3061 13.1532 15.3194L13.2015 16.5094V15.3194C16.7682 15.3194 19.6698 12.4161 19.6698 8.84939C19.6698 5.28106 16.7682 2.37939 13.2015 2.37939ZM13.2015 17.6977H13.1482C8.27818 17.6827 4.33318 13.7111 4.34985 8.84439C4.34985 3.96939 8.31984 -0.000610352 13.2015 -0.000610352C18.0815 -0.000610352 22.0498 3.96939 22.0498 8.84939C22.0498 13.7294 18.0815 17.6977 13.2015 17.6977Z" fill="white"/>
</g>
</svg>
