<svg width="56" height="58" viewBox="0 0 56 58" fill="none" xmlns="http://www.w3.org/2000/svg">
<g filter="url(#filter0_dd_40_6040)">
<path fill-rule="evenodd" clip-rule="evenodd" d="M6.5 22.1667C6.5 13.5139 13.5139 6.5 22.1667 6.5C30.8195 6.5 37.8333 13.5139 37.8333 22.1667C37.8333 25.8788 36.5317 29.3046 34.3519 31.9996L34.5251 32.1667H36.1667H36.3741L36.5206 32.3135L48.1639 43.9801L48.5168 44.3337L48.1636 44.6869L44.6869 48.1636L44.3337 48.5168L43.9801 48.1639L32.3135 36.5206L32.1667 36.3741V36.1667V34.5251L31.9996 34.3519C29.3046 36.5317 25.8788 37.8333 22.1667 37.8333C13.5139 37.8333 6.5 30.8195 6.5 22.1667ZM22.1667 7.5C14.0661 7.5 7.5 14.0661 7.5 22.1667C7.5 30.2672 14.0661 36.8333 22.1667 36.8333C25.7991 36.8333 29.1378 35.5026 31.7107 33.2908L32.0688 32.983L32.3966 33.3229L33.0266 33.9763L33.1667 34.1215V34.3233V35.9593L44.333 47.1032L47.1032 44.333L35.9593 33.1667H34.3233H34.1215L33.9763 33.0266L33.3229 32.3966L32.983 32.0688L33.2908 31.7107C35.5026 29.1378 36.8333 25.7991 36.8333 22.1667C36.8333 14.0661 30.2672 7.5 22.1667 7.5ZM22.1667 12.1667C16.6328 12.1667 12.1667 16.6328 12.1667 22.1667C12.1667 27.7005 16.6328 32.1667 22.1667 32.1667C27.7005 32.1667 32.1667 27.7005 32.1667 22.1667C32.1667 16.6328 27.7005 12.1667 22.1667 12.1667ZM11.1667 22.1667C11.1667 16.0805 16.0805 11.1667 22.1667 11.1667C28.2528 11.1667 33.1667 16.0805 33.1667 22.1667C33.1667 28.2528 28.2528 33.1667 22.1667 33.1667C16.0805 33.1667 11.1667 28.2528 11.1667 22.1667Z" fill="black"/>
<path d="M34.3519 31.9996L33.9631 31.6852L33.675 32.0414L34.0048 32.3595L34.3519 31.9996ZM34.5251 32.1667L34.1781 32.5266L34.3233 32.6667H34.5251V32.1667ZM36.3741 32.1667L36.728 31.8135L36.5815 31.6667H36.3741V32.1667ZM36.5206 32.3135L36.1667 32.6667L36.5206 32.3135ZM48.1639 43.9801L48.5178 43.6269L48.1639 43.9801ZM48.5168 44.3337L48.8703 44.6872L49.2235 44.334L48.8707 43.9805L48.5168 44.3337ZM44.3337 48.5168L43.9805 48.8707L44.334 49.2235L44.6872 48.8703L44.3337 48.5168ZM43.9801 48.1639L43.6269 48.5178L43.9801 48.1639ZM32.3135 36.5206L32.6667 36.1667L32.3135 36.5206ZM32.1667 36.3741H31.6667V36.5815L31.8135 36.728L32.1667 36.3741ZM32.1667 34.5251H32.6667V34.3233L32.5266 34.1781L32.1667 34.5251ZM31.9996 34.3519L32.3595 34.0048L32.0414 33.675L31.6852 33.9631L31.9996 34.3519ZM31.7107 33.2908L32.0367 33.67L31.7107 33.2908ZM32.0688 32.983L32.4287 32.6359L32.101 32.296L31.7429 32.6039L32.0688 32.983ZM32.3966 33.3229L32.7565 32.9759L32.7565 32.9759L32.3966 33.3229ZM33.0266 33.9763L32.6667 34.3233L32.6667 34.3233L33.0266 33.9763ZM33.1667 34.1215H33.6667V33.9197L33.5266 33.7745L33.1667 34.1215ZM33.1667 35.9593H32.6667V36.1667L32.8135 36.3132L33.1667 35.9593ZM44.333 47.1032L43.9798 47.4572L44.3333 47.81L44.6865 47.4568L44.333 47.1032ZM47.1032 44.333L47.4568 44.6865L47.81 44.3333L47.4572 43.9798L47.1032 44.333ZM35.9593 33.1667L36.3132 32.8135L36.1667 32.6667H35.9593V33.1667ZM34.1215 33.1667L33.7745 33.5266L33.9197 33.6667H34.1215V33.1667ZM33.9763 33.0266L34.3233 32.6667L34.3233 32.6667L33.9763 33.0266ZM33.3229 32.3966L32.9759 32.7565L32.9759 32.7565L33.3229 32.3966ZM32.983 32.0688L32.6039 31.7429L32.296 32.101L32.6359 32.4287L32.983 32.0688ZM33.2908 31.7107L33.67 32.0367L33.2908 31.7107ZM22.1667 6C13.2377 6 6 13.2377 6 22.1667H7C7 13.79 13.79 7 22.1667 7V6ZM38.3333 22.1667C38.3333 13.2377 31.0956 6 22.1667 6V7C30.5433 7 37.3333 13.79 37.3333 22.1667H38.3333ZM34.7406 32.314C36.9897 29.5335 38.3333 25.9976 38.3333 22.1667H37.3333C37.3333 25.76 36.0738 29.0757 33.9631 31.6852L34.7406 32.314ZM34.8722 31.8067L34.699 31.6397L34.0048 32.3595L34.1781 32.5266L34.8722 31.8067ZM36.1667 31.6667H34.5251V32.6667H36.1667V31.6667ZM36.3741 31.6667H36.1667V32.6667H36.3741V31.6667ZM36.8745 31.9603L36.728 31.8135L36.0202 32.5199L36.1667 32.6667L36.8745 31.9603ZM48.5178 43.6269L36.8745 31.9603L36.1667 32.6667L47.81 44.3333L48.5178 43.6269ZM48.8707 43.9805L48.5178 43.6269L47.81 44.3333L48.1628 44.6869L48.8707 43.9805ZM48.5171 45.0404L48.8703 44.6872L48.1632 43.9801L47.81 44.3333L48.5171 45.0404ZM45.0404 48.5171L48.5171 45.0404L47.81 44.3333L44.3333 47.81L45.0404 48.5171ZM44.6872 48.8703L45.0404 48.5171L44.3333 47.81L43.9801 48.1632L44.6872 48.8703ZM43.6269 48.5178L43.9805 48.8707L44.6869 48.1628L44.3333 47.81L43.6269 48.5178ZM31.9603 36.8745L43.6269 48.5178L44.3333 47.81L32.6667 36.1667L31.9603 36.8745ZM31.8135 36.728L31.9603 36.8745L32.6667 36.1667L32.5199 36.0202L31.8135 36.728ZM31.6667 36.1667V36.3741H32.6667V36.1667H31.6667ZM31.6667 34.5251V36.1667H32.6667V34.5251H31.6667ZM31.6397 34.699L31.8067 34.8722L32.5266 34.1781L32.3595 34.0048L31.6397 34.699ZM22.1667 38.3333C25.9976 38.3333 29.5335 36.9897 32.314 34.7406L31.6852 33.9631C29.0757 36.0738 25.76 37.3333 22.1667 37.3333V38.3333ZM6 22.1667C6 31.0956 13.2377 38.3333 22.1667 38.3333V37.3333C13.79 37.3333 7 30.5433 7 22.1667H6ZM8 22.1667C8 14.3423 14.3423 8 22.1667 8V7C13.79 7 7 13.79 7 22.1667H8ZM22.1667 36.3333C14.3423 36.3333 8 29.991 8 22.1667H7C7 30.5433 13.79 37.3333 22.1667 37.3333V36.3333ZM31.3848 32.9117C28.899 35.0486 25.6748 36.3333 22.1667 36.3333V37.3333C25.9233 37.3333 29.3767 35.9567 32.0367 33.67L31.3848 32.9117ZM31.7429 32.6039L31.3848 32.9117L32.0367 33.67L32.3948 33.3622L31.7429 32.6039ZM32.7565 32.9759L32.4287 32.6359L31.7089 33.3301L32.0367 33.67L32.7565 32.9759ZM33.3865 33.6292L32.7565 32.9759L32.0367 33.67L32.6667 34.3233L33.3865 33.6292ZM33.5266 33.7745L33.3865 33.6292L32.6667 34.3233L32.8067 34.4686L33.5266 33.7745ZM33.6667 34.3233V34.1215H32.6667V34.3233H33.6667ZM33.6667 35.9593V34.3233H32.6667V35.9593H33.6667ZM44.6862 46.7493L33.5199 35.6054L32.8135 36.3132L43.9798 47.4572L44.6862 46.7493ZM46.7497 43.9794L43.9794 46.7497L44.6865 47.4568L47.4568 44.6865L46.7497 43.9794ZM35.6054 33.5199L46.7493 44.6862L47.4572 43.9798L36.3132 32.8135L35.6054 33.5199ZM34.3233 33.6667H35.9593V32.6667H34.3233V33.6667ZM34.1215 33.6667H34.3233V32.6667H34.1215V33.6667ZM33.6292 33.3865L33.7745 33.5266L34.4686 32.8067L34.3233 32.6667L33.6292 33.3865ZM32.9759 32.7565L33.6292 33.3865L34.3233 32.6667L33.67 32.0367L32.9759 32.7565ZM32.6359 32.4287L32.9759 32.7565L33.67 32.0367L33.3301 31.7089L32.6359 32.4287ZM32.9117 31.3848L32.6039 31.7429L33.3622 32.3948L33.67 32.0367L32.9117 31.3848ZM36.3333 22.1667C36.3333 25.6748 35.0486 28.899 32.9117 31.3848L33.67 32.0367C35.9567 29.3767 37.3333 25.9233 37.3333 22.1667H36.3333ZM22.1667 8C29.991 8 36.3333 14.3423 36.3333 22.1667H37.3333C37.3333 13.79 30.5433 7 22.1667 7V8ZM12.6667 22.1667C12.6667 16.909 16.909 12.6667 22.1667 12.6667V11.6667C16.3567 11.6667 11.6667 16.3567 11.6667 22.1667H12.6667ZM22.1667 31.6667C16.909 31.6667 12.6667 27.4244 12.6667 22.1667H11.6667C11.6667 27.9767 16.3567 32.6667 22.1667 32.6667V31.6667ZM31.6667 22.1667C31.6667 27.4244 27.4244 31.6667 22.1667 31.6667V32.6667C27.9767 32.6667 32.6667 27.9767 32.6667 22.1667H31.6667ZM22.1667 12.6667C27.4244 12.6667 31.6667 16.909 31.6667 22.1667H32.6667C32.6667 16.3567 27.9767 11.6667 22.1667 11.6667V12.6667ZM22.1667 10.6667C15.8044 10.6667 10.6667 15.8044 10.6667 22.1667H11.6667C11.6667 16.3567 16.3567 11.6667 22.1667 11.6667V10.6667ZM33.6667 22.1667C33.6667 15.8044 28.529 10.6667 22.1667 10.6667V11.6667C27.9767 11.6667 32.6667 16.3567 32.6667 22.1667H33.6667ZM22.1667 33.6667C28.529 33.6667 33.6667 28.529 33.6667 22.1667H32.6667C32.6667 27.9767 27.9767 32.6667 22.1667 32.6667V33.6667ZM10.6667 22.1667C10.6667 28.529 15.8044 33.6667 22.1667 33.6667V32.6667C16.3567 32.6667 11.6667 27.9767 11.6667 22.1667H10.6667Z" fill="black"/>
</g>
<defs>
<filter id="filter0_dd_40_6040" x="2" y="6" width="51.2235" height="51.2235" filterUnits="userSpaceOnUse" color-interpolation-filters="sRGB">
<feFlood flood-opacity="0" result="BackgroundImageFix"/>
<feColorMatrix in="SourceAlpha" type="matrix" values="0 0 0 0 0 0 0 0 0 0 0 0 0 0 0 0 0 0 127 0" result="hardAlpha"/>
<feOffset dy="4"/>
<feGaussianBlur stdDeviation="2"/>
<feComposite in2="hardAlpha" operator="out"/>
<feColorMatrix type="matrix" values="0 0 0 0 0 0 0 0 0 0 0 0 0 0 0 0 0 0 0.25 0"/>
<feBlend mode="normal" in2="BackgroundImageFix" result="effect1_dropShadow_40_6040"/>
<feColorMatrix in="SourceAlpha" type="matrix" values="0 0 0 0 0 0 0 0 0 0 0 0 0 0 0 0 0 0 127 0" result="hardAlpha"/>
<feOffset dy="4"/>
<feGaussianBlur stdDeviation="2"/>
<feComposite in2="hardAlpha" operator="out"/>
<feColorMatrix type="matrix" values="0 0 0 0 0 0 0 0 0 0 0 0 0 0 0 0 0 0 0.25 0"/>
<feBlend mode="normal" in2="effect1_dropShadow_40_6040" result="effect2_dropShadow_40_6040"/>
<feBlend mode="normal" in="SourceGraphic" in2="effect2_dropShadow_40_6040" result="shape"/>
</filter>
</defs>
</svg>
