<svg width="56" height="57" viewBox="0 0 56 57" fill="none" xmlns="http://www.w3.org/2000/svg">
<g filter="url(#filter0_dd_40_6039)">
<path fill-rule="evenodd" clip-rule="evenodd" d="M6.5 22.1667C6.5 13.5139 13.5139 6.5 22.1667 6.5C30.8195 6.5 37.8333 13.5139 37.8333 22.1667C37.8333 25.8788 36.5317 29.3046 34.3519 31.9996L34.5251 32.1667H36.1667H36.3741L36.5206 32.3135L48.1639 43.9801L48.5168 44.3337L48.1636 44.6869L44.6869 48.1636L44.3337 48.5168L43.9801 48.1639L32.3135 36.5206L32.1667 36.3741V36.1667V34.5251L31.9996 34.3519C29.3046 36.5317 25.8788 37.8333 22.1667 37.8333C13.5139 37.8333 6.5 30.8195 6.5 22.1667ZM22.1667 7.5C14.0661 7.5 7.5 14.0661 7.5 22.1667C7.5 30.2672 14.0661 36.8333 22.1667 36.8333C25.7991 36.8333 29.1378 35.5026 31.7107 33.2908L32.0688 32.983L32.3966 33.3229L33.0266 33.9763L33.1667 34.1215V34.3233V35.9593L44.333 47.1032L47.1032 44.333L35.9593 33.1667H34.3233H34.1215L33.9763 33.0266L33.3229 32.3966L32.983 32.0688L33.2908 31.7107C35.5026 29.1378 36.8333 25.7991 36.8333 22.1667C36.8333 14.0661 30.2672 7.5 22.1667 7.5ZM22.1667 12.1667C16.6328 12.1667 12.1667 16.6328 12.1667 22.1667C12.1667 27.7005 16.6328 32.1667 22.1667 32.1667C27.7005 32.1667 32.1667 27.7005 32.1667 22.1667C32.1667 16.6328 27.7005 12.1667 22.1667 12.1667ZM11.1667 22.1667C11.1667 16.0805 16.0805 11.1667 22.1667 11.1667C28.2528 11.1667 33.1667 16.0805 33.1667 22.1667C33.1667 28.2528 28.2528 33.1667 22.1667 33.1667C16.0805 33.1667 11.1667 28.2528 11.1667 22.1667Z" fill="black"/>
</g>
<defs>
<filter id="filter0_dd_40_6039" x="2.5" y="6.5" width="50.0168" height="50.0167" filterUnits="userSpaceOnUse" color-interpolation-filters="sRGB">
<feFlood flood-opacity="0" result="BackgroundImageFix"/>
<feColorMatrix in="SourceAlpha" type="matrix" values="0 0 0 0 0 0 0 0 0 0 0 0 0 0 0 0 0 0 127 0" result="hardAlpha"/>
<feOffset dy="4"/>
<feGaussianBlur stdDeviation="2"/>
<feComposite in2="hardAlpha" operator="out"/>
<feColorMatrix type="matrix" values="0 0 0 0 0 0 0 0 0 0 0 0 0 0 0 0 0 0 0.25 0"/>
<feBlend mode="normal" in2="BackgroundImageFix" result="effect1_dropShadow_40_6039"/>
<feColorMatrix in="SourceAlpha" type="matrix" values="0 0 0 0 0 0 0 0 0 0 0 0 0 0 0 0 0 0 127 0" result="hardAlpha"/>
<feOffset dy="4"/>
<feGaussianBlur stdDeviation="2"/>
<feComposite in2="hardAlpha" operator="out"/>
<feColorMatrix type="matrix" values="0 0 0 0 0 0 0 0 0 0 0 0 0 0 0 0 0 0 0.25 0"/>
<feBlend mode="normal" in2="effect1_dropShadow_40_6039" result="effect2_dropShadow_40_6039"/>
<feBlend mode="normal" in="SourceGraphic" in2="effect2_dropShadow_40_6039" result="shape"/>
</filter>
</defs>
</svg>
